<svg xmlns="http://www.w3.org/2000/svg" width="24" height="24" viewBox="0 0 24 24"><defs><clipPath id="a"><rect width="21.623" height="21.623" fill="none"></rect></clipPath></defs><g transform="translate(-1031 -415)"><rect width="24" height="24" transform="translate(1031 415)" fill="none"></rect><g transform="translate(1032 416)" clip-path="url(#a)"><path d="M21.054,3.734A5.544,5.544,0,0,0,17.889.569a7.984,7.984,0,0,0-2.626-.5C14.111.012,13.744,0,10.812,0S7.506.012,6.355.067a7.91,7.91,0,0,0-2.62.5A5.232,5.232,0,0,0,1.818,1.818,5.393,5.393,0,0,0,.569,3.734a7.788,7.788,0,0,0-.5,2.62C.018,7.506,0,7.873,0,10.812s.012,3.3.067,4.457a7.91,7.91,0,0,0,.5,2.62A5.232,5.232,0,0,0,1.818,19.8a5.311,5.311,0,0,0,1.916,1.249,7.943,7.943,0,0,0,2.62.5c1.151.055,1.518.067,4.457.067s3.3-.012,4.457-.067a7.984,7.984,0,0,0,2.626-.5A5.289,5.289,0,0,0,19.8,19.8a5.393,5.393,0,0,0,1.249-1.916,8.07,8.07,0,0,0,.5-2.62c.049-1.151.067-1.518.067-4.457s-.012-3.3-.067-4.457a8.07,8.07,0,0,0-.5-2.62M19.609,15.171a6.065,6.065,0,0,1-.373,2.008,3.36,3.36,0,0,1-.808,1.243,3.311,3.311,0,0,1-1.243.808,6.029,6.029,0,0,1-2.008.373c-1.139.049-1.482.061-4.365.061s-3.226-.012-4.365-.061a6.066,6.066,0,0,1-2.008-.373A3.36,3.36,0,0,1,3.2,18.421a3.36,3.36,0,0,1-.808-1.243,6.029,6.029,0,0,1-.373-2.008c-.049-1.139-.061-1.482-.061-4.365s.012-3.226.061-4.365a6.065,6.065,0,0,1,.373-2.008A3.36,3.36,0,0,1,3.2,3.19a3.36,3.36,0,0,1,1.243-.808,6.029,6.029,0,0,1,2.008-.373c1-.049,1.384-.061,3.4-.061h.967c2.883,0,3.226.012,4.365.061a6.066,6.066,0,0,1,2.008.373,3.36,3.36,0,0,1,1.243.808,3.36,3.36,0,0,1,.808,1.243,6.028,6.028,0,0,1,.373,2.008c.049,1.139.061,1.482.061,4.365s-.012,3.226-.061,4.365" transform="translate(0 0)" fill="currentColor"></path><path d="M250.9,61.1a1.3,1.3,0,1,0,1.3,1.3,1.3,1.3,0,0,0-1.3-1.3" transform="translate(-234.319 -57.359)" fill="currentColor"></path><path d="M91.547,85.9a5.547,5.547,0,1,0,5.547,5.547A5.546,5.546,0,0,0,91.547,85.9m0,9.146a3.6,3.6,0,1,1,3.6-3.6,3.6,3.6,0,0,1-3.6,3.6" transform="translate(-80.735 -80.641)" fill="currentColor"></path></g></g></svg>
